<svg width="500" height="326" viewBox="0 0 500 326" fill="none" xmlns="http://www.w3.org/2000/svg">
<g filter="url(#filter0_d_15_81)">
<path d="M126.82 3.23097C131.989 2.17293 137.297 1.36211 142.592 0.823207C147.936 0.276887 153.399 0 158.832 0C161.511 0 164.169 0.0816664 166.816 0.215156C167.32 0.237405 169.34 0.383238 169.34 0.383238C171.145 0.499423 172.951 0.637827 174.746 0.815813C175.564 0.897391 177.594 1.13478 177.594 1.13478C179.295 1.33748 180.987 1.56244 182.671 1.81706C183.595 1.95549 184.518 2.09637 185.435 2.24964C187.22 2.55122 188.993 2.89479 190.759 3.25571C190.759 3.25571 192.567 3.61422 193.054 3.72299C195.429 4.24459 197.788 4.81317 200.119 5.44107L200.502 5.5399C202.93 6.19499 205.486 6.96384 208.101 7.81669L209.217 8.19978C211.294 8.89689 213.354 9.63104 215.394 10.4097L217.113 11.0896C218.98 11.8287 220.832 12.5975 222.664 13.4034L224.307 14.1351C226.258 15.0226 228.184 15.9472 230.093 16.9088L231.175 17.4477C234.654 19.2301 238.141 21.1903 241.542 23.2717C244.879 25.3186 248.2 27.5262 251.411 29.8351C253.587 31.4073 255.654 32.977 257.686 34.6036L257.968 34.8286C259.948 36.4157 261.875 38.0719 263.779 39.7479L265.419 41.2237C266.97 42.6328 268.496 44.0691 269.992 45.535L271.059 46.5682C272.148 47.6633 273.228 48.7709 274.289 49.8932L275.346 51.0847C277.88 53.8237 279.965 56.2043 281.849 58.5058L233.331 107.089L232.898 106.661C228.604 100.543 223.44 94.8718 217.648 89.9228L216.169 88.6596V88.7016C214.552 87.379 212.848 86.0862 211.089 84.8378C204.789 80.3708 197.968 76.7345 190.826 74.0276C189.724 73.6049 188.749 73.2711 187.771 72.9424L186.652 72.5593C185.833 72.2985 185.008 72.0539 184.186 71.8099L184.103 71.7854L183.742 71.6808C183.243 71.5364 182.876 71.4302 182.508 71.3355C181.741 71.1207 180.957 70.9282 180.173 70.7357L180.169 70.7348C179.547 70.5815 178.917 70.4382 178.283 70.3022C177.559 70.1391 176.83 69.9858 176.099 69.8449C175.388 69.709 174.667 69.5803 173.946 69.4617C173.247 69.3405 172.58 69.2294 171.908 69.1305C171.103 69.0168 170.296 68.9154 169.483 68.8215C169.483 68.8215 168.046 68.6485 167.626 68.6089C166.68 68.5199 165.725 68.4532 164.771 68.3889L163.272 68.2875C161.8 68.2183 160.318 68.1763 158.832 68.1763C146.607 68.1763 134.736 70.5791 123.551 75.3254C116.922 78.1361 110.602 81.7625 104.772 86.1084C101.097 88.8548 97.7727 91.7373 94.7054 94.8076C92.6754 96.842 90.7046 99.0124 88.8499 101.257C87.9238 102.377 87.0248 103.524 86.1531 104.688C83.5377 108.191 81.1545 111.907 79.0726 115.738C71.8984 128.941 68.105 143.897 68.105 158.994C68.105 161.145 68.2038 163.463 68.4088 166.094L68.4927 167.181C68.7027 169.52 68.999 171.834 69.3769 174.056L69.4954 174.733C70.3549 179.586 71.5896 184.335 73.1727 188.866C79.0652 205.752 89.6896 220.379 103.934 231.246L55.5173 279.708C26.0719 254.437 6.92485 219.492 1.57563 181.217C1.23482 178.785 0.953301 176.422 0.726095 174.056L0.59767 172.36C0.437144 170.471 0.286475 168.583 0.19016 166.684C0.0716175 164.185 0.00247807 161.671 8.43849e-06 159.14C-0.00493082 143.704 2.15846 128.583 6.42845 114.055C11.753 95.9421 20.2016 79.0557 31.552 63.8651C45.2486 45.5399 63.0793 30.0872 83.1253 19.188C89.8871 15.5121 96.9873 12.3008 104.218 9.64341C111.551 6.95878 119.157 4.80071 126.82 3.23097Z" fill="white" fill-opacity="0.01" shape-rendering="crispEdges"/>
<path d="M116.641 218.528C97.3775 204.823 85.9036 182.624 85.9036 158.994C85.9036 135.356 97.38 113.16 116.651 99.4574L176.119 158.994L116.641 218.528Z" fill="white" fill-opacity="0.01" shape-rendering="crispEdges"/>
<path d="M233 211.208V211.235L129.157 315.182C138.912 317.041 148.914 318 158.822 318C206.748 318 251.532 296.664 281.856 259.48L233.331 210.877L233 211.208Z" fill="white" fill-opacity="0.01" shape-rendering="crispEdges"/>
<path d="M384.235 66.9352L406.232 44.9169H448.537C454.602 44.9169 459.536 49.8559 459.536 55.9273C459.536 61.9961 454.602 66.9352 448.537 66.9352H384.235Z" fill="white" fill-opacity="0.01" shape-rendering="crispEdges"/>
<path d="M478.198 55.9273C478.198 61.9343 483.09 66.8709 489.096 66.9303H489.106C495.113 66.8685 500 61.9343 500 55.9273C500 49.9153 495.098 44.9811 489.096 44.9267C483.085 44.9811 478.198 49.9153 478.198 55.9273Z" fill="white" fill-opacity="0.01" shape-rendering="crispEdges"/>
<path d="M314.26 136.993L336.262 114.972H379.739C385.804 114.972 390.741 119.911 390.741 125.98C390.741 132.051 385.804 136.993 379.739 136.993H314.26Z" fill="white" fill-opacity="0.01" shape-rendering="crispEdges"/>
<path d="M408.226 125.98C408.226 131.987 413.121 136.924 419.122 136.983H419.132C425.138 136.924 430.023 131.984 430.023 125.98C430.023 119.973 425.123 115.039 419.122 114.979C413.116 115.039 408.226 119.973 408.226 125.98Z" fill="white" fill-opacity="0.01" shape-rendering="crispEdges"/>
<path d="M349.25 101.964L371.242 79.9431H406.212C412.278 79.9431 417.212 84.8822 417.212 90.9535C417.212 97.0248 412.278 101.964 406.212 101.964H349.25Z" fill="white" fill-opacity="0.01" shape-rendering="crispEdges"/>
<path d="M384.25 251.048L406.252 273.071H448.537C454.602 273.071 459.536 268.129 459.536 262.058C459.536 255.987 454.602 251.048 448.537 251.048H384.25Z" fill="white" fill-opacity="0.01" shape-rendering="crispEdges"/>
<path d="M487.92 273.061C481.914 272.999 477.021 268.062 477.021 262.058C477.021 256.048 481.909 251.114 487.917 251.057C493.919 251.114 498.823 256.048 498.823 262.058C498.823 268.055 493.938 272.994 487.932 273.061H487.92Z" fill="white" fill-opacity="0.01" shape-rendering="crispEdges"/>
<path d="M314.265 180.995L336.262 203.013H378.562C384.628 203.013 389.564 198.074 389.564 192.005C389.564 185.934 384.628 180.995 378.562 180.995H314.265Z" fill="white" fill-opacity="0.01" shape-rendering="crispEdges"/>
<path d="M419.203 203.006C413.202 202.951 408.307 198.015 408.307 192.005C408.307 185.993 413.197 181.057 419.205 181.005C425.204 181.057 430.104 185.993 430.104 192.005C430.104 198.015 425.219 202.946 419.213 203.006H419.203Z" fill="white" fill-opacity="0.01" shape-rendering="crispEdges"/>
<path d="M303.283 147.981L292.283 158.994L303.283 170.007H364.522C370.588 170.007 375.522 165.068 375.522 158.994C375.522 152.923 370.588 147.981 364.522 147.981H303.283Z" fill="white" fill-opacity="0.01" shape-rendering="crispEdges"/>
<path d="M371.257 238.039L349.258 216.016H406.212C412.278 216.016 417.212 220.96 417.212 227.029C417.212 233.1 412.278 238.039 406.212 238.039H371.257Z" fill="white" fill-opacity="0.01" shape-rendering="crispEdges"/>
<path d="M126.82 3.23097C131.989 2.17293 137.297 1.36211 142.592 0.823207C147.936 0.276887 153.399 0 158.832 0C161.511 0 164.169 0.0816664 166.816 0.215156C167.32 0.237405 169.34 0.383238 169.34 0.383238C171.145 0.499423 172.951 0.637827 174.746 0.815813C175.564 0.897391 177.594 1.13478 177.594 1.13478C179.295 1.33748 180.987 1.56244 182.671 1.81706C183.595 1.95549 184.518 2.09637 185.435 2.24964C187.22 2.55122 188.993 2.89479 190.759 3.25571C190.759 3.25571 192.567 3.61422 193.054 3.72299C195.429 4.24459 197.788 4.81317 200.119 5.44107L200.502 5.5399C202.93 6.19499 205.486 6.96384 208.101 7.81669L209.217 8.19978C211.294 8.89689 213.354 9.63104 215.394 10.4097L217.113 11.0896C218.98 11.8287 220.832 12.5975 222.664 13.4034L224.307 14.1351C226.258 15.0226 228.184 15.9472 230.093 16.9088L231.175 17.4477C234.654 19.2301 238.141 21.1903 241.542 23.2717C244.879 25.3186 248.2 27.5262 251.411 29.8351C253.587 31.4073 255.654 32.977 257.686 34.6036L257.968 34.8286C259.948 36.4157 261.875 38.0719 263.779 39.7479L265.419 41.2237C266.97 42.6328 268.496 44.0691 269.992 45.535L271.059 46.5682C272.148 47.6633 273.228 48.7709 274.289 49.8932L275.346 51.0847C277.88 53.8237 279.965 56.2043 281.849 58.5058L233.331 107.089L232.898 106.661C228.604 100.543 223.44 94.8718 217.648 89.9228L216.169 88.6596V88.7016C214.552 87.379 212.848 86.0862 211.089 84.8378C204.789 80.3708 197.968 76.7345 190.826 74.0276C189.724 73.6049 188.749 73.2711 187.771 72.9424L186.652 72.5593C185.833 72.2985 185.008 72.0539 184.186 71.8099L184.103 71.7854L183.742 71.6808C183.243 71.5364 182.876 71.4302 182.508 71.3355C181.741 71.1207 180.957 70.9282 180.173 70.7357L180.169 70.7348C179.547 70.5815 178.917 70.4382 178.283 70.3022C177.559 70.1391 176.83 69.9858 176.099 69.8449C175.388 69.709 174.667 69.5803 173.946 69.4617C173.247 69.3405 172.58 69.2294 171.908 69.1305C171.103 69.0168 170.296 68.9154 169.483 68.8215C169.483 68.8215 168.046 68.6485 167.626 68.6089C166.68 68.5199 165.725 68.4532 164.771 68.3889L163.272 68.2875C161.8 68.2183 160.318 68.1763 158.832 68.1763C146.607 68.1763 134.736 70.5791 123.551 75.3254C116.922 78.1361 110.602 81.7625 104.772 86.1084C101.097 88.8548 97.7727 91.7373 94.7054 94.8076C92.6754 96.842 90.7046 99.0124 88.8499 101.257C87.9238 102.377 87.0248 103.524 86.1531 104.688C83.5377 108.191 81.1545 111.907 79.0726 115.738C71.8984 128.941 68.105 143.897 68.105 158.994C68.105 161.145 68.2038 163.463 68.4088 166.094L68.4927 167.181C68.7027 169.52 68.999 171.834 69.3769 174.056L69.4954 174.733C70.3549 179.586 71.5896 184.335 73.1727 188.866C79.0652 205.752 89.6896 220.379 103.934 231.246L55.5173 279.708C26.0719 254.437 6.92485 219.492 1.57563 181.217C1.23482 178.785 0.953301 176.422 0.726095 174.056L0.59767 172.36C0.437144 170.471 0.286475 168.583 0.19016 166.684C0.0716175 164.185 0.00247807 161.671 8.43849e-06 159.14C-0.00493082 143.704 2.15846 128.583 6.42845 114.055C11.753 95.9421 20.2016 79.0557 31.552 63.8651C45.2486 45.5399 63.0793 30.0872 83.1253 19.188C89.8871 15.5121 96.9873 12.3008 104.218 9.64341C111.551 6.95878 119.157 4.80071 126.82 3.23097Z" stroke="black" shape-rendering="crispEdges"/>
<path d="M116.641 218.528C97.3775 204.823 85.9036 182.624 85.9036 158.994C85.9036 135.356 97.38 113.16 116.651 99.4574L176.119 158.994L116.641 218.528Z" stroke="black" shape-rendering="crispEdges"/>
<path d="M233 211.208V211.235L129.157 315.182C138.912 317.041 148.914 318 158.822 318C206.748 318 251.532 296.664 281.856 259.48L233.331 210.877L233 211.208Z" stroke="black" shape-rendering="crispEdges"/>
<path d="M384.235 66.9352L406.232 44.9169H448.537C454.602 44.9169 459.536 49.8559 459.536 55.9273C459.536 61.9961 454.602 66.9352 448.537 66.9352H384.235Z" stroke="black" shape-rendering="crispEdges"/>
<path d="M478.198 55.9273C478.198 61.9343 483.09 66.8709 489.096 66.9303H489.106C495.113 66.8685 500 61.9343 500 55.9273C500 49.9153 495.098 44.9811 489.096 44.9267C483.085 44.9811 478.198 49.9153 478.198 55.9273Z" stroke="black" shape-rendering="crispEdges"/>
<path d="M314.26 136.993L336.262 114.972H379.739C385.804 114.972 390.741 119.911 390.741 125.98C390.741 132.051 385.804 136.993 379.739 136.993H314.26Z" stroke="black" shape-rendering="crispEdges"/>
<path d="M408.226 125.98C408.226 131.987 413.121 136.924 419.122 136.983H419.132C425.138 136.924 430.023 131.984 430.023 125.98C430.023 119.973 425.123 115.039 419.122 114.979C413.116 115.039 408.226 119.973 408.226 125.98Z" stroke="black" shape-rendering="crispEdges"/>
<path d="M349.25 101.964L371.242 79.9431H406.212C412.278 79.9431 417.212 84.8822 417.212 90.9535C417.212 97.0248 412.278 101.964 406.212 101.964H349.25Z" stroke="black" shape-rendering="crispEdges"/>
<path d="M384.25 251.048L406.252 273.071H448.537C454.602 273.071 459.536 268.129 459.536 262.058C459.536 255.987 454.602 251.048 448.537 251.048H384.25Z" stroke="black" shape-rendering="crispEdges"/>
<path d="M487.92 273.061C481.914 272.999 477.021 268.062 477.021 262.058C477.021 256.048 481.909 251.114 487.917 251.057C493.919 251.114 498.823 256.048 498.823 262.058C498.823 268.055 493.938 272.994 487.932 273.061H487.92Z" stroke="black" shape-rendering="crispEdges"/>
<path d="M314.265 180.995L336.262 203.013H378.562C384.628 203.013 389.564 198.074 389.564 192.005C389.564 185.934 384.628 180.995 378.562 180.995H314.265Z" stroke="black" shape-rendering="crispEdges"/>
<path d="M419.203 203.006C413.202 202.951 408.307 198.015 408.307 192.005C408.307 185.993 413.197 181.057 419.205 181.005C425.204 181.057 430.104 185.993 430.104 192.005C430.104 198.015 425.219 202.946 419.213 203.006H419.203Z" stroke="black" shape-rendering="crispEdges"/>
<path d="M303.283 147.981L292.283 158.994L303.283 170.007H364.522C370.588 170.007 375.522 165.068 375.522 158.994C375.522 152.923 370.588 147.981 364.522 147.981H303.283Z" stroke="black" shape-rendering="crispEdges"/>
<path d="M371.257 238.039L349.258 216.016H406.212C412.278 216.016 417.212 220.96 417.212 227.029C417.212 233.1 412.278 238.039 406.212 238.039H371.257Z" stroke="black" shape-rendering="crispEdges"/>
</g>
<defs>
<filter id="filter0_d_15_81" x="-4" y="0" width="508" height="326" filterUnits="userSpaceOnUse" color-interpolation-filters="sRGB">
<feFlood flood-opacity="0" result="BackgroundImageFix"/>
<feColorMatrix in="SourceAlpha" type="matrix" values="0 0 0 0 0 0 0 0 0 0 0 0 0 0 0 0 0 0 127 0" result="hardAlpha"/>
<feOffset dy="4"/>
<feGaussianBlur stdDeviation="2"/>
<feComposite in2="hardAlpha" operator="out"/>
<feColorMatrix type="matrix" values="0 0 0 0 0 0 0 0 0 0 0 0 0 0 0 0 0 0 0.1 0"/>
<feBlend mode="normal" in2="BackgroundImageFix" result="effect1_dropShadow_15_81"/>
<feBlend mode="normal" in="SourceGraphic" in2="effect1_dropShadow_15_81" result="shape"/>
</filter>
</defs>
</svg>
